<mxfile host="Electron" agent="Mozilla/5.0 (Windows NT 10.0; Win64; x64) AppleWebKit/537.36 (KHTML, like Gecko) draw.io/24.7.17 Chrome/128.0.6613.36 Electron/32.0.1 Safari/537.36" version="24.7.17">
  <diagram name="Page-1" id="mZa_cu21dhcYEdMwpWoq">
    <mxGraphModel dx="1215" dy="716" grid="0" gridSize="10" guides="1" tooltips="1" connect="1" arrows="1" fold="1" page="0" pageScale="1" pageWidth="850" pageHeight="1100" math="0" shadow="0">
      <root>
        <mxCell id="0" />
        <mxCell id="1" parent="0" />
        <mxCell id="Wqo2GqMmXYBG1G4iDkzc-3" value="" style="edgeStyle=none;curved=1;rounded=0;orthogonalLoop=1;jettySize=auto;html=1;fontSize=12;startSize=8;endSize=8;" edge="1" parent="1" source="Wqo2GqMmXYBG1G4iDkzc-1" target="Wqo2GqMmXYBG1G4iDkzc-4">
          <mxGeometry relative="1" as="geometry">
            <mxPoint x="77" y="251" as="targetPoint" />
          </mxGeometry>
        </mxCell>
        <mxCell id="Wqo2GqMmXYBG1G4iDkzc-1" value="start" style="rounded=0;whiteSpace=wrap;html=1;" vertex="1" parent="1">
          <mxGeometry x="17" y="71" width="120" height="60" as="geometry" />
        </mxCell>
        <mxCell id="Wqo2GqMmXYBG1G4iDkzc-6" value="" style="edgeStyle=none;curved=1;rounded=0;orthogonalLoop=1;jettySize=auto;html=1;fontSize=12;startSize=8;endSize=8;" edge="1" parent="1" source="Wqo2GqMmXYBG1G4iDkzc-4" target="Wqo2GqMmXYBG1G4iDkzc-5">
          <mxGeometry relative="1" as="geometry" />
        </mxCell>
        <mxCell id="Wqo2GqMmXYBG1G4iDkzc-4" value="variable = randint&amp;nbsp;&lt;div&gt;(1 to 10)&lt;/div&gt;" style="rounded=1;whiteSpace=wrap;html=1;" vertex="1" parent="1">
          <mxGeometry x="17" y="221" width="120" height="60" as="geometry" />
        </mxCell>
        <mxCell id="Wqo2GqMmXYBG1G4iDkzc-8" value="" style="edgeStyle=none;curved=1;rounded=0;orthogonalLoop=1;jettySize=auto;html=1;fontSize=12;startSize=8;endSize=8;" edge="1" parent="1" source="Wqo2GqMmXYBG1G4iDkzc-5" target="Wqo2GqMmXYBG1G4iDkzc-7">
          <mxGeometry relative="1" as="geometry" />
        </mxCell>
        <mxCell id="Wqo2GqMmXYBG1G4iDkzc-5" value="guess prompt" style="whiteSpace=wrap;html=1;rounded=1;" vertex="1" parent="1">
          <mxGeometry x="17" y="401" width="120" height="60" as="geometry" />
        </mxCell>
        <mxCell id="Wqo2GqMmXYBG1G4iDkzc-10" value="" style="edgeStyle=none;curved=1;rounded=0;orthogonalLoop=1;jettySize=auto;html=1;fontSize=12;startSize=8;endSize=8;" edge="1" parent="1" source="Wqo2GqMmXYBG1G4iDkzc-7" target="Wqo2GqMmXYBG1G4iDkzc-9">
          <mxGeometry relative="1" as="geometry" />
        </mxCell>
        <mxCell id="Wqo2GqMmXYBG1G4iDkzc-7" value="user geuss" style="shape=parallelogram;perimeter=parallelogramPerimeter;whiteSpace=wrap;html=1;fixedSize=1;rounded=1;" vertex="1" parent="1">
          <mxGeometry x="182" y="401" width="120" height="60" as="geometry" />
        </mxCell>
        <mxCell id="Wqo2GqMmXYBG1G4iDkzc-12" value="" style="edgeStyle=none;curved=1;rounded=0;orthogonalLoop=1;jettySize=auto;html=1;fontSize=12;startSize=8;endSize=8;" edge="1" parent="1" source="Wqo2GqMmXYBG1G4iDkzc-9" target="Wqo2GqMmXYBG1G4iDkzc-11">
          <mxGeometry relative="1" as="geometry" />
        </mxCell>
        <mxCell id="Wqo2GqMmXYBG1G4iDkzc-19" value="no" style="edgeLabel;html=1;align=center;verticalAlign=middle;resizable=0;points=[];fontSize=12;" vertex="1" connectable="0" parent="Wqo2GqMmXYBG1G4iDkzc-12">
          <mxGeometry x="-0.4071" y="-1" relative="1" as="geometry">
            <mxPoint as="offset" />
          </mxGeometry>
        </mxCell>
        <mxCell id="Wqo2GqMmXYBG1G4iDkzc-17" value="" style="edgeStyle=none;curved=1;rounded=0;orthogonalLoop=1;jettySize=auto;html=1;fontSize=12;startSize=8;endSize=8;" edge="1" parent="1" source="Wqo2GqMmXYBG1G4iDkzc-9" target="Wqo2GqMmXYBG1G4iDkzc-16">
          <mxGeometry relative="1" as="geometry" />
        </mxCell>
        <mxCell id="Wqo2GqMmXYBG1G4iDkzc-18" value="yes" style="edgeLabel;html=1;align=center;verticalAlign=middle;resizable=0;points=[];fontSize=12;" vertex="1" connectable="0" parent="Wqo2GqMmXYBG1G4iDkzc-17">
          <mxGeometry x="-0.2549" y="3" relative="1" as="geometry">
            <mxPoint as="offset" />
          </mxGeometry>
        </mxCell>
        <mxCell id="Wqo2GqMmXYBG1G4iDkzc-9" value="if user geuss= variable" style="rhombus;whiteSpace=wrap;html=1;rounded=1;" vertex="1" parent="1">
          <mxGeometry x="190" y="567" width="104" height="104" as="geometry" />
        </mxCell>
        <mxCell id="Wqo2GqMmXYBG1G4iDkzc-14" value="" style="edgeStyle=none;curved=1;rounded=0;orthogonalLoop=1;jettySize=auto;html=1;fontSize=12;startSize=8;endSize=8;entryX=0.5;entryY=1;entryDx=0;entryDy=0;" edge="1" parent="1" source="Wqo2GqMmXYBG1G4iDkzc-11" target="Wqo2GqMmXYBG1G4iDkzc-5">
          <mxGeometry relative="1" as="geometry">
            <mxPoint x="-95" y="701" as="targetPoint" />
          </mxGeometry>
        </mxCell>
        <mxCell id="Wqo2GqMmXYBG1G4iDkzc-11" value="false" style="whiteSpace=wrap;html=1;rounded=1;" vertex="1" parent="1">
          <mxGeometry x="70" y="671" width="120" height="60" as="geometry" />
        </mxCell>
        <mxCell id="Wqo2GqMmXYBG1G4iDkzc-21" value="" style="edgeStyle=none;curved=1;rounded=0;orthogonalLoop=1;jettySize=auto;html=1;fontSize=12;startSize=8;endSize=8;" edge="1" parent="1" source="Wqo2GqMmXYBG1G4iDkzc-16" target="Wqo2GqMmXYBG1G4iDkzc-20">
          <mxGeometry relative="1" as="geometry" />
        </mxCell>
        <mxCell id="Wqo2GqMmXYBG1G4iDkzc-16" value="true" style="whiteSpace=wrap;html=1;rounded=1;" vertex="1" parent="1">
          <mxGeometry x="294" y="671" width="120" height="60" as="geometry" />
        </mxCell>
        <mxCell id="Wqo2GqMmXYBG1G4iDkzc-20" value="end" style="rounded=0;whiteSpace=wrap;html=1;" vertex="1" parent="1">
          <mxGeometry x="294" y="805" width="120" height="60" as="geometry" />
        </mxCell>
      </root>
    </mxGraphModel>
  </diagram>
</mxfile>
